<?xml version="1.0" standalone="no"?><!DOCTYPE svg PUBLIC "-//W3C//DTD SVG 1.1//EN" "http://www.w3.org/Graphics/SVG/1.1/DTD/svg11.dtd"><svg t="1491659887656" class="icon" style="" viewBox="0 0 1024 1024" version="1.1" xmlns="http://www.w3.org/2000/svg" p-id="3289" xmlns:xlink="http://www.w3.org/1999/xlink" width="18" height="18"><defs><style type="text/css"></style></defs><path d="M621.713737 804.567406c-20.285613 0-36.571246-16.285633-36.571246-36.571246L585.142491 365.712457c0-20.285613 16.285633-36.571246 36.571246-36.571246 20.285613 0 36.571246 16.285633 36.571246 36.571246l0 402.283703C658.284983 788.281773 641.99935 804.567406 621.713737 804.567406L621.713737 804.567406zM402.286263 804.567406c-20.285613 0-36.571246-16.285633-36.571246-36.571246L365.715017 365.712457c0-20.285613 16.285633-36.571246 36.571246-36.571246 20.285613 0 36.571246 16.285633 36.571246 36.571246l0 402.283703C438.857509 788.281773 422.571876 804.567406 402.286263 804.567406L402.286263 804.567406zM987.426194 182.856229l-182.856229 0L804.569966 109.713737C804.569966 49.285468 755.713067 0 695.713367 0L329.143771 0c-60.428269 0-109.713737 49.285468-109.713737 109.713737L219.430034 182.856229l-182.856229 0C16.288193 182.856229 0.00256 199.141861 0.00256 219.427474c0 20.285613 16.285633 36.571246 36.571246 36.571246l950.852389 0c20.285613 0 36.571246-16.285633 36.571246-36.571246C1023.99744 199.141861 1007.711807 182.856229 987.426194 182.856229L987.426194 182.856229zM292.572526 109.713737c0-20.142756 16.428489-36.571246 36.571246-36.571246L695.713367 73.142491c19.9999 0 35.714107 15.99992 35.714107 36.571246L731.427474 182.856229 292.572526 182.856229 292.572526 109.713737 292.572526 109.713737zM768.141576 1023.99488 256.144136 1023.99488c-60.428269 0-109.713737-49.285468-109.713737-109.713737L146.430399 365.141031c0-20.142756 16.428489-36.571246 36.571246-36.571246 20.142756 0 36.571246 16.428489 36.571246 36.571246L219.572891 914.281143c0 20.142756 16.428489 36.571246 36.571246 36.571246l512.140296 0c20.142756 0 36.571246-16.428489 36.571246-36.571246L804.855679 366.712452c0-20.142756 16.285633-36.571246 36.571246-36.571246 20.285613 0 36.571246 16.428489 36.571246 36.571246L877.99817 914.281143C877.855314 974.709412 828.569846 1023.99488 768.141576 1023.99488L768.141576 1023.99488zM768.141576 1023.99488" p-id="3290" fill="#ffffff"></path></svg>