<?xml version="1.0" standalone="no"?><!DOCTYPE svg PUBLIC "-//W3C//DTD SVG 1.1//EN" "http://www.w3.org/Graphics/SVG/1.1/DTD/svg11.dtd"><svg t="1491663303364" class="icon" style="" viewBox="0 0 1025 1024" version="1.1" xmlns="http://www.w3.org/2000/svg" p-id="6351" xmlns:xlink="http://www.w3.org/1999/xlink" width="18.017578125" height="18"><defs><style type="text/css"></style></defs><path d="M927.961287 608.017354c-31.998665 0-30.782716 31.998665-30.782716 31.998665l0 255.797329c0 35.454521-28.798799 64.189322-64.445311 64.189322L129.658591 960.00267c-35.582516 0-64.445311-29.182783-64.445311-64.189322L65.213279 256.160033C65.213279 220.769509 94.012078 192.034708 129.658591 192.034708L511.978641 192.034708c0 0 31.998665 0 31.998665-31.998665S511.978641 128.037378 511.978641 128.037378L127.610676 128.037378C57.27761 128.037378 0 185.506981 0 256.416022l0 639.205333C0 966.594395 57.149616 1024 127.610676 1024l704.738599 0C902.682342 1024 959.959952 966.530398 959.959952 895.621356L959.959952 640.016019C959.959952 640.016019 959.959952 608.017354 927.961287 608.017354z" p-id="6352" fill="#666666"></path><path d="M992.406598 72.295704l-109.819419-63.421354c-31.358692-18.111244-70.269068-7.551685-87.868334 23.039039l-368.240638 637.797392c-8.575642 14.847381-12.799466 41.086286-9.151618 58.045578 0 0 26.174908 126.266732 40.190323 144.185985 22.52706 3.199867 144.953953-37.246446 144.953953-37.246446 15.679346-4.991792 36.926459-21.82309 45.694094-36.926459l368.240638-637.797392C1034.004863 129.381322 1023.317309 90.150959 992.406598 72.295704zM589.735397 770.954557c0 0-78.076743 28.414815-90.620219 28.990791-5.75976-11.135535-20.223156-92.988121-20.223156-92.988121l51.197864-88.7003 110.843376 63.99733L589.735397 770.954557zM672.931926 626.832569l-110.843376-63.99733 223.990655-387.951815 110.843376 63.99733L672.931926 626.832569zM928.921247 183.459066l-110.843376-63.99733L850.076536 64.040048l110.843376 63.99733L928.921247 183.459066z" p-id="6353" fill="#666666"></path></svg>