<?xml version="1.0" standalone="no"?><!DOCTYPE svg PUBLIC "-//W3C//DTD SVG 1.1//EN" "http://www.w3.org/Graphics/SVG/1.1/DTD/svg11.dtd"><svg t="1491668048468" class="icon" style="" viewBox="0 0 1024 1024" version="1.1" xmlns="http://www.w3.org/2000/svg" p-id="1015" xmlns:xlink="http://www.w3.org/1999/xlink" width="24" height="24"><defs><style type="text/css"></style></defs><path d="M45.599 506.027c0 263.066 213.069 476.16 476.16 476.16s476.16-213.069 476.16-476.16-213.094-476.16-476.16-476.16-476.16 213.069-476.16 476.16v0zM85.28 506.027c0-241.050 195.405-436.48 436.48-436.48 241.050 0 436.48 195.43 436.48 436.48 0 98.202-32.538 189.082-87.296 261.862-27.776-128.947-125.21-232.115-250.982-268.032 59.93-34.125 100.173-98.611 100.173-172.39 0-109.517-88.858-198.4-198.374-198.4-109.517 0-198.4 88.883-198.4 198.4 0 73.805 40.269 138.266 100.198 172.39-125.798 35.891-223.206 139.085-250.982 268.032-54.758-72.806-87.296-163.661-87.296-261.862v0zM840.966 803.627c-79.565 85.504-193.254 138.88-319.232 138.88s-239.667-53.376-319.232-138.88h4.173c19.661-156.544 153.165-277.786 315.085-277.786 161.869 0 295.424 121.242 315.059 277.786h4.147zM363.040 327.467c0-87.68 71.014-158.72 158.72-158.72s158.72 71.040 158.72 158.72c0 87.68-71.014 158.72-158.72 158.72-87.706 0-158.72-71.040-158.72-158.72v0zM363.040 327.467z" p-id="1016" fill="#999999"></path></svg>