<?xml version="1.0" standalone="no"?><!DOCTYPE svg PUBLIC "-//W3C//DTD SVG 1.1//EN" "http://www.w3.org/Graphics/SVG/1.1/DTD/svg11.dtd"><svg t="1491725521799" class="icon" style="" viewBox="0 0 1024 1024" version="1.1" xmlns="http://www.w3.org/2000/svg" p-id="26245" xmlns:xlink="http://www.w3.org/1999/xlink" width="22" height="22"><defs><style type="text/css"></style></defs><path d="M191.93344 692.70528c0-69.49888 50.9696-106.56768 88.03328-111.2064 111.20128-18.5344 264.11008 74.13248 264.11008 74.13248-69.504 88.0384-166.8096 134.36928-240.94208 134.36928-64.86528-4.62336-111.20128-41.69728-111.20128-97.29536z m787.69664 37.0688c-13.90592-4.63872-328.98048-101.9392-319.71328-111.21152 46.336-55.59808 78.7712-185.33888 78.7712-185.33888v-27.8016h-185.33888V335.92832h227.0464v-41.7024h-227.0464v-101.9392h-92.672v97.3056H256.80384v41.7024h203.87328V400.7936H298.50624v27.8016h333.60896c0 13.9008-23.16288 106.56768-46.336 148.27008-4.62848-9.2672-152.90368-60.2368-236.30848-64.86528-88.03328 4.6336-157.53728 32.4352-189.97248 97.3056-46.336 120.46848 27.8016 240.94208 194.60608 240.94208 27.8016 0 162.17088-13.9008 264.11008-152.9088 27.8016 13.9008 185.33376 92.672 282.64448 143.6416-92.672 111.20128-231.68 180.7104-389.21728 180.7104A508.2112 508.2112 0 0 1 1.96096 512.00512 508.2112 508.2112 0 0 1 511.6416 2.32448a508.2112 508.2112 0 0 1 509.68576 509.68064c4.6336 83.39968-13.89568 152.89856-41.69728 217.76896z" fill="#19A0E5" p-id="26246"></path></svg>