<?xml version="1.0" encoding="utf-8"?>
<!-- Generator: Adobe Illustrator 21.0.0, SVG Export Plug-In . SVG Version: 6.00 Build 0)  -->
<svg version="1.1" id="图层_1" xmlns="http://www.w3.org/2000/svg" xmlns:xlink="http://www.w3.org/1999/xlink" x="0px" y="0px"
	 viewBox="0 0 55 55" style="enable-background:new 0 0 55 55;" xml:space="preserve">
<style type="text/css">
	.st0{fill:#434343;}
	.st1{opacity:0.9;fill:#6FC192;enable-background:new    ;}
	.st2{fill:#FFFFFF;}
</style>
<g>
	<circle class="st0" cx="27.5" cy="27.5" r="27.5"/>
</g>
<circle id="XMLID_3_" class="st1" cx="27.5" cy="27.5" r="25"/>
<g>
	<path class="st2" d="M40.6,28.3l-1.9,12.1c-0.2,1-1.4,1.9-2.4,1.9H18.9c-1.2,0-2.3-0.9-2.4-1.9l-2.1-12.1c-0.9-0.5-1.4-1.4-1.4-2.6
		c0-1.7,1.4-3.1,3-3.1h7.9V25c0,1.4,0.9,2.4,1.7,2.4h0.7l0.2,11.5c0,0.5,0.5,1,1,1s1-0.5,1-1l0.2-11.4h0.7c1,0,1.7-1,1.7-2.4v-2.4
		H39c1.7,0,3,1.4,3,3.1C42,26.9,41.5,27.8,40.6,28.3z M20.3,38.9l-1-10c-0.2-0.7-0.9-1.4-1.4-1.4s-1.2,0.7-1,1.4l1.4,10
		c0,0.5,0.5,1,1.2,1C20,40,20.3,39.5,20.3,38.9z M24,29c0-0.9-0.5-1.4-1.2-1.4s-1.2,0.7-1,1.4l0.7,10c0,0.5,0.5,1,1,1s1-0.5,1-1
		L24,29z M32.4,27.6c-0.7,0-1.2,0.7-1.2,1.4l-0.5,10c0,0.5,0.3,1,1,1c0.5,0,1-0.5,1-1l0.9-10C33.4,28.3,33.1,27.6,32.4,27.6z
		 M37.1,27.6c-0.7,0-1.2,0.7-1.4,1.4l-1,10c0,0.5,0.3,1,0.9,1s1-0.5,1.2-1l1.4-10C38.3,28.3,37.8,27.6,37.1,27.6z M27.5,26.4
		c-1.4,0-2.4-1-2.4-2.4v-8.7c0-1.4,1-2.4,2.4-2.4s2.4,1,2.4,2.4V24C29.9,25.3,28.9,26.4,27.5,26.4z M27.5,22.7
		c-0.7,0-1.2,0.5-1.2,1.2s0.5,1.2,1.2,1.2s1.2-0.5,1.2-1.2S28.2,22.7,27.5,22.7z"/>
</g>
</svg>
