<?xml version="1.0" encoding="utf-8"?>
<!-- Generator: Adobe Illustrator 19.0.0, SVG Export Plug-In . SVG Version: 6.00 Build 0)  -->
<svg version="1.1" id="图层_1" xmlns="http://www.w3.org/2000/svg" xmlns:xlink="http://www.w3.org/1999/xlink" x="0px" y="0px"
	 viewBox="-28 28 25 25" style="enable-background:new -28 28 25 25;" xml:space="preserve">
<style type="text/css">
	.st0{fill:#FFFFFF;}
</style>
<path id="XMLID_2_" class="st0" d="M-19.6,48.7c-0.9,0-1.6,0.7-1.6,1.6c0,0.9,0.7,1.7,1.6,1.7s1.6-0.7,1.6-1.6
	C-18,49.5-18.7,48.7-19.6,48.7L-19.6,48.7z M-8.1,48.7c-0.9,0-1.6,0.7-1.6,1.6c0,0.9,0.7,1.7,1.6,1.7s1.6-0.7,1.6-1.6
	C-6.5,49.5-7.2,48.7-8.1,48.7L-8.1,48.7z M-6.5,47.9h-13.3c-1.2,0-2.2-0.9-2.4-2.1l-1.4-9.8l-0.8-4.6c0-0.4-0.4-0.7-0.8-0.7h-1
	c-0.4-0.1-0.8-0.4-0.8-0.9s0.4-0.8,0.8-0.8h1c1.2,0,2.2,0.9,2.4,2.1l0.8,4.6l1.4,9.8c0,0.4,0.4,0.7,0.7,0.7h13.3
	c0.5,0,0.8,0.4,0.8,0.8S-6,47.9-6.5,47.9z M-18.8,44.6c-0.4,0-0.8-0.3-0.8-0.8c0-0.5,0.3-0.8,0.8-0.9l11.1-0.8
	c0.4,0,0.8-0.3,0.8-0.7l1.3-7.4c0-0.3,0-0.6-0.2-0.8C-5.9,33.1-6,33-6.2,33h-14.2c-0.5,0-0.8-0.4-0.8-0.8c0-0.4,0.4-0.8,0.8-0.8
	h14.2c0.6,0,1.2,0.3,1.6,0.7c0.5,0.5,0.7,1.3,0.6,2.1l-1.3,7.4c-0.1,1.2-1.2,2.1-2.4,2.1L-18.8,44.6L-18.8,44.6z"/>
</svg>
