<?xml version="1.0" encoding="utf-8"?>
<!-- Generator: Adobe Illustrator 19.0.0, SVG Export Plug-In . SVG Version: 6.00 Build 0)  -->
<svg version="1.1" id="图层_1" xmlns="http://www.w3.org/2000/svg" xmlns:xlink="http://www.w3.org/1999/xlink" x="0px" y="0px"
	 viewBox="2 0 25 23" style="enable-background:new 2 0 25 23;" xml:space="preserve">
<style type="text/css">
	.st0{fill:#74C5D0;}
</style>
<g>
	<path id="XMLID_3_" class="st0" d="M10,19.7c-1,0-1.8,0.7-1.8,1.6c0,1,0.8,1.7,1.8,1.7s1.8-0.7,1.8-1.6C11.8,20.4,11,19.7,10,19.7
		L10,19.7z"/>
	<path id="XMLID_2_" class="st0" d="M22.5,19.7c-1,0-1.8,0.7-1.8,1.6s0.8,1.6,1.8,1.6s1.8-0.7,1.8-1.6
		C24.3,20.4,23.5,19.7,22.5,19.7L22.5,19.7z"/>
	<path id="XMLID_1_" class="st0" d="M26.3,3.2c-0.5-0.5-1.1-0.7-1.8-0.7H6.7L6.6,2.1C6.5,0.9,5.3,0,4,0H2.9C2.4,0,2,0.4,2,0.8
		s0.4,0.8,0.9,0.8H4c0.4,0,0.8,0.3,0.8,0.7L5.7,7l1.5,9.8c0.2,1.2,1.3,2.1,2.6,2.1h14.5c0.5,0,0.9-0.4,0.9-0.8s-0.4-0.8-0.9-0.8H9.8
		C9.4,17.3,9,17,9,16.6l-0.1-1L23,14.8c1.3,0,2.4-0.9,2.6-2.1L27,5.3C27.1,4.5,26.8,3.7,26.3,3.2z"/>
</g>
</svg>
