<?xml version="1.0" encoding="utf-8"?>
<!-- Generator: Adobe Illustrator 19.0.0, SVG Export Plug-In . SVG Version: 6.00 Build 0)  -->
<svg version="1.1" id="图层_1" xmlns="http://www.w3.org/2000/svg" xmlns:xlink="http://www.w3.org/1999/xlink" x="0px" y="0px"
	 viewBox="-15 8 50 65" style="enable-background:new -15 8 50 65;" xml:space="preserve">
<style type="text/css">
	.st0{fill:#FF6C00;}
	.st1{fill:#434243;}
</style>
<path id="XMLID_3_" class="st0" d="M31.4,33h-4.5h-7.3h-8.7H2h-7.9h-5.6c-0.9,0-1.7-0.2-2.2-0.5c-0.6-0.4-1-0.8-1.2-1.4
	c-0.2-0.6-0.2-1.2,0-1.9c0.2-0.7,0.6-1.3,1.3-2c1.4-1.3,2.9-2.7,4.5-4.2c1.6-1.5,3.2-2.9,4.8-4.4l4.8-4.5c1.6-1.5,3.2-2.9,4.7-4.3
	c0.7-0.6,1.5-1.1,2.5-1.4C8.7,8.1,9.6,8,10.6,8s2,0.2,3,0.6c1,0.4,1.8,0.9,2.5,1.5c2.6,2.4,5.4,5,8.2,7.7s5.9,5.8,9,8.9
	c0.7,0.8,1.2,1.5,1.5,2.3c0.3,0.7,0.3,1.4,0.1,2s-0.6,1.1-1.1,1.4C33.1,32.8,32.3,33,31.4,33L31.4,33z"/>
<path id="XMLID_2_" class="st1" d="M-11.5,48H-7h7.3H9h8.9h7.9h5.6c0.9,0,1.7,0.2,2.2,0.5s1,0.8,1.2,1.4c0.2,0.6,0.2,1.2,0,1.9
	s-0.6,1.3-1.3,2c-1.4,1.3-2.9,2.7-4.5,4.2s-3.2,2.9-4.8,4.4l-4.8,4.5c-1.6,1.5-3.2,2.9-4.7,4.3c-0.7,0.6-1.5,1.1-2.5,1.4
	S10.5,73,9.5,73s-2-0.2-3-0.6S4.7,71.5,4,70.9c-2.6-2.4-5.4-5-8.2-7.7s-5.9-5.8-9-8.9c-0.7-0.8-1.2-1.5-1.5-2.3s-0.3-1.4-0.1-2
	c0.2-0.6,0.6-1.1,1.1-1.4C-13.2,48.2-12.4,48-11.5,48L-11.5,48z"/>
</svg>
