<?xml version="1.0" encoding="utf-8"?>
<!-- Generator: Adobe Illustrator 19.0.0, SVG Export Plug-In . SVG Version: 6.00 Build 0)  -->
<svg version="1.1" id="图层_1" xmlns="http://www.w3.org/2000/svg" xmlns:xlink="http://www.w3.org/1999/xlink" x="0px" y="0px"
	 viewBox="0 0 50 65" style="enable-background:new 0 0 50 65;" xml:space="preserve">
<style type="text/css">
	.st0{fill:#434243;}
</style>
<path id="XMLID_3_" class="st0" d="M46.4,25h-4.5h-7.3h-8.7H17H9.1H3.5c-0.9,0-1.7-0.2-2.2-0.5c-0.6-0.4-1-0.8-1.2-1.4
	s-0.2-1.2,0-1.9c0.2-0.7,0.6-1.3,1.3-2c1.4-1.3,2.9-2.7,4.5-4.2s3.2-2.9,4.8-4.4l4.8-4.5c1.6-1.5,3.2-2.9,4.7-4.3
	c0.7-0.6,1.5-1.1,2.5-1.4c1-0.3,1.9-0.4,2.9-0.4c1,0,2,0.2,3,0.6c1,0.4,1.8,0.9,2.5,1.5c2.6,2.4,5.4,5,8.2,7.7s5.9,5.8,9,8.9
	c0.7,0.8,1.2,1.5,1.5,2.3c0.3,0.7,0.3,1.4,0.1,2c-0.2,0.6-0.6,1.1-1.1,1.4C48.1,24.8,47.3,25,46.4,25L46.4,25z"/>
<path id="XMLID_2_" class="st0" d="M3.5,40H8h7.3H24h8.9h7.9h5.6c0.9,0,1.7,0.2,2.2,0.5s1,0.8,1.2,1.4c0.2,0.6,0.2,1.2,0,1.9
	c-0.2,0.7-0.6,1.3-1.3,2c-1.4,1.3-2.9,2.7-4.5,4.2c-1.6,1.5-3.2,2.9-4.8,4.4l-4.8,4.5c-1.6,1.5-3.2,2.9-4.7,4.3
	c-0.7,0.6-1.5,1.1-2.5,1.4S25.5,65,24.5,65c-1,0-2-0.2-3-0.6c-1-0.4-1.8-0.9-2.5-1.5c-2.6-2.4-5.4-5-8.2-7.7s-5.9-5.8-9-8.9
	c-0.7-0.8-1.2-1.5-1.5-2.3s-0.3-1.4-0.1-2c0.2-0.6,0.6-1.1,1.1-1.4C1.8,40.2,2.6,40,3.5,40L3.5,40z"/>
</svg>
