<?xml version="1.0" encoding="utf-8"?>
<!-- Generator: Adobe Illustrator 19.0.0, SVG Export Plug-In . SVG Version: 6.00 Build 0)  -->
<svg version="1.1" id="图层_1" xmlns="http://www.w3.org/2000/svg" xmlns:xlink="http://www.w3.org/1999/xlink" x="0px" y="0px"
	 viewBox="0 0 25 23" style="enable-background:new 0 0 25 23;" xml:space="preserve">
<style type="text/css">
	.st0{fill:#38B7A9;}
</style>
<path class="st0" d="M24.7,9.1L14.1,0.6c-0.9-0.7-2.3-0.7-3.2,0L0.3,9.1C0,9.4-0.1,9.9,0.2,10.3c0.3,0.4,0.8,0.4,1.2,0.1l0.3-0.3
	v10.3c0,1.5,1.5,2.6,2.8,2.6h16.6c1.3,0,2.2-1,2.2-2.6V10.1l0.4,0.3c0.2,0.1,0.3,0.2,0.5,0.2c0.2,0,0.5-0.1,0.7-0.3
	C25.1,9.9,25,9.4,24.7,9.1z M15,19.5v1.8h-1.7h-1.7H10v-1.8v-3c0-1,0.8-2.1,2.5-2.1c1.7,0,2.5,1.1,2.5,2.1V19.5L15,19.5z"/>
</svg>
